# xmcd CD database file
#
# Track frame offsets:
#	150
#	19487
#	38445
#	59752
#	80092
#	97990
#	119850
#	142875
#	160880
#	185347
#	202925
#	221897
#
# Disc length: 3223 seconds
#
# Revision: 0
# Processed by: cddbd v1.5.1PL0 Copyright (c) Steve Scherf et al.
# Submitted via: CDex 1.51
#
DISCID=ae0c950c
DTITLE=Burny, Ryo and Jun - B.R.J
DYEAR=1900
DGENRE=Hard Rock
TTITLE0=Gangland
TTITLE1=No No No
TTITLE2=The Warrior
TTITLE3=Somewhere In The Sky
TTITLE4=Big Shot
TTITLE5=Black Widow
TTITLE6=Just Wanna Call Your Name
TTITLE7=Sooner Or Later
TTITLE8=Y.E.N.O.M
TTITLE9=Break The Chain
TTITLE10=Ladies On The Side Walk
TTITLE11=Rain
EXTD=
EXTT0=
EXTT1=
EXTT2=
EXTT3=
EXTT4=
EXTT5=
EXTT6=
EXTT7=
EXTT8=
EXTT9=
EXTT10=
EXTT11=
PLAYORDER=
